<?xml version="1.0" encoding="utf-8"?>
<!-- Generator: Adobe Illustrator 27.5.0, SVG Export Plug-In . SVG Version: 6.00 Build 0)  -->
<svg version="1.1" id="Layer_1" xmlns="http://www.w3.org/2000/svg" xmlns:xlink="http://www.w3.org/1999/xlink" x="0px" y="0px"
	 viewBox="0 0 1000 1000" style="enable-background:new 0 0 1000 1000;" xml:space="preserve">
<g>
	<path d="M360.2,380c-9.2,0-16.7,7.5-16.7,16.7c0,9.2,7.5,16.7,16.7,16.7s16.7-7.5,16.7-16.7C376.9,387.5,369.4,380,360.2,380z"/>
	<path d="M268.6,477.9c9.3,0.8,18.7,1.2,28,1.2c0.4,0,0.8,0,1.3,0c45.7-0.2,89.8-9.7,131.2-28.4c40-18.1,75.3-43.7,105.1-76.2
		c5.5-6,5.1-15.4-0.9-20.9c-6-5.5-15.4-5.1-20.9,0.9c-27,29.5-59.1,52.8-95.4,69.2c-37.6,17-77.7,25.7-119.3,25.8
		c-0.1,0-0.3,0-0.4,0c-0.1,0-0.2,0-0.3,0c-3,0-6,0-9-0.1c1.9-8.1,4.4-17.2,7.5-25.2c15.5-40.2,42.5-74.6,78-99.4
		c36.3-25.3,79-38.7,123.4-38.7c24.5,0,48.5,4.1,71.4,12.1c14,5.3,48.7,21.7,54.7,57.7c0.3,2.1,0.6,4.2,0.7,6.3
		c1.8,26.4-8.2,59.1-28.9,94.6c-2.7,4.6-2.7,10.2,0,14.8c2.6,4.6,7.5,7.4,12.8,7.4h122.6c4.4,0,8.5-1.9,11.3-5.3
		c2.8-3.4,4-7.8,3.2-12.1c-6.6-37.3-23.5-73.9-48.8-106.1c-24.2-30.8-55-56.1-89-73.2c0,0,0,0,0,0c-8.8-4.4-18-8.4-27.3-11.7
		c0,0,0,0,0,0c-26.5-9.5-54.4-14.3-82.8-14.3c-50.5,0-99.1,15.2-140.3,44.1c-40.3,28.2-71,67.2-88.7,112.9
		c-6.4,16.6-10.6,36.6-12.5,47c-0.7,4.1,0.3,8.3,2.8,11.6C260.6,475.5,264.4,477.6,268.6,477.9z M653.1,360.3
		c-0.2-3.1-0.5-6.2-1-9.1c28.3,27.8,49.4,62.3,59.5,98.4h-79.4C647.9,417,654.9,387.1,653.1,360.3z"/>
	<path d="M639.8,620c9.2,0,16.7-7.5,16.7-16.7c0-9.2-7.5-16.7-16.7-16.7c-9.2,0-16.7,7.5-16.7,16.7C623.1,612.5,630.6,620,639.8,620
		z"/>
	<path d="M741.9,527.8c-2.5-3.3-6.3-5.4-10.5-5.8c-9.3-0.8-18.7-1.2-28-1.2c-0.4,0-0.8,0-1.3,0c-45.7,0.2-89.8,9.7-131.2,28.4
		c-40,18.1-75.3,43.7-105.1,76.2c-5.5,6-5.1,15.4,0.9,20.9c6,5.5,15.4,5.1,20.9-0.9c27-29.5,59.1-52.8,95.4-69.2
		c37.6-17,77.7-25.7,119.3-25.8c0.1,0,0.3,0,0.4,0c0.1,0,0.2,0,0.3,0c3,0,6,0,9,0.1c-1.9,8.1-4.4,17.2-7.5,25.2
		c-15.5,40.2-42.5,74.6-78,99.4c-36.3,25.3-79,38.7-123.4,38.7c-24.5,0-48.5-4.1-71.4-12.1c-14-5.3-48.7-21.7-54.7-57.7
		c-0.3-2.1-0.6-4.2-0.7-6.3c-1.8-26.4,8.2-59.1,28.9-94.6c2.7-4.6,2.7-10.2,0-14.8c-2.6-4.6-7.5-7.4-12.8-7.4H269.9
		c-4.4,0-8.5,1.9-11.3,5.3c-2.8,3.4-4,7.8-3.2,12.1c6.6,37.3,23.5,73.9,48.8,106.1c24.2,30.8,55,56.1,89,73.2c0,0,0,0,0,0
		c8.8,4.4,18,8.4,27.3,11.7c0,0,0,0,0,0c26.5,9.5,54.4,14.3,82.8,14.3c50.5,0,99.1-15.2,140.3-44.1c40.3-28.2,71-67.2,88.7-112.9
		c6.4-16.6,10.6-36.6,12.5-47C745.4,535.4,744.4,531.2,741.9,527.8z M346.9,639.7c0.2,3.1,0.5,6.2,1,9.1
		c-28.3-27.8-49.4-62.3-59.5-98.4h79.4C352.1,583,345.1,612.9,346.9,639.7z"/>
</g>
</svg>
